<?xml version="1.0" encoding="UTF-8" standalone="no"?>
<!-- Created with Inkscape (http://www.inkscape.org/) -->

<svg
   width="210mm"
   height="297mm"
   viewBox="0 0 210 297"
   version="1.1"
   id="svg53029"
   inkscape:version="1.1.1 (3bf5ae0d25, 2021-09-20)"
   sodipodi:docname="logo.svg"
   xmlns:inkscape="http://www.inkscape.org/namespaces/inkscape"
   xmlns:sodipodi="http://sodipodi.sourceforge.net/DTD/sodipodi-0.dtd"
   xmlns="http://www.w3.org/2000/svg"
   xmlns:svg="http://www.w3.org/2000/svg">
  <sodipodi:namedview
     id="namedview53031"
     pagecolor="#ffffff"
     bordercolor="#666666"
     borderopacity="1.0"
     inkscape:pageshadow="2"
     inkscape:pageopacity="0.0"
     inkscape:pagecheckerboard="0"
     inkscape:document-units="mm"
     showgrid="false"
     inkscape:zoom="0.77771465"
     inkscape:cx="396.67505"
     inkscape:cy="561.25984"
     inkscape:window-width="2560"
     inkscape:window-height="1361"
     inkscape:window-x="2391"
     inkscape:window-y="-9"
     inkscape:window-maximized="1"
     inkscape:current-layer="layer1" />
  <defs
     id="defs53026" />
  <g
     inkscape:label="Layer 1"
     inkscape:groupmode="layer"
     id="layer1">
    <path
       style="fill:#000000;stroke-width:1.15763"
       d="m 18.202779,189.84041 v -44.73002 l 2.527872,0.13837 c 1.902275,0.10406 2.041298,0.27336 0.561751,0.68385 -1.383134,0.38375 -1.966124,1.74041 -1.966124,4.57528 v 4.02978 l 23.228315,-0.27039 c 17.142672,-0.19955 23.348514,-0.65322 23.687103,-1.73164 0.548381,-1.74663 3.642032,-1.97466 3.642032,-0.26846 0,0.65604 0.758361,1.19281 1.685247,1.19281 0.926887,0 1.685249,0.53676 1.685249,1.1928 0,0.65603 1.137542,1.20711 2.527872,1.22458 1.807666,0.0228 0.683112,1.09438 -3.947102,3.76143 -8.650404,4.9827 -7.408632,5.7277 1.595848,0.95742 8.236203,-4.36328 18.566299,-8.64926 19.537147,-8.10602 1.550381,0.86754 2.249537,-3.79813 1.865528,-12.44922 -0.484202,-10.90825 0.408568,-10.5409 -16.695803,-6.86982 -6.084503,1.3059 -11.778965,2.37942 -12.654358,2.3856 -3.508024,0.0248 -0.125488,-1.14779 8.365165,-2.89973 4.925495,-1.01632 11.60971,-2.4259 14.853813,-3.13239 l 5.898369,-1.28455 0.0063,-6.77305 c 0.0082,-8.85872 1.774455,-15.40118 4.396352,-16.28467 1.722045,-0.58028 1.939755,-1.38969 1.248725,-4.64269 -1.026807,-4.833408 0.79615,-7.912506 4.68452,-7.912506 4.15443,0 5.68588,4.435346 4.08068,11.818396 -1.15542,5.31431 -1.05218,6.135 1.14473,9.10021 2.91154,3.92973 3.17275,6.2463 0.44855,3.97806 -1.08136,-0.90039 -0.63738,0.2416 0.98662,2.53774 1.62401,2.29615 3.39352,4.09354 3.93224,3.99422 0.53874,-0.0993 1.80585,0.28895 2.81581,0.86281 1.37566,0.78163 1.79842,0.53918 1.68526,-0.96652 -0.0831,-1.10546 0.7337,-2.20402 1.81507,-2.44127 3.65485,-0.80187 2.39463,4.48026 -1.40438,5.8863 -1.85377,0.68608 -3.37049,1.73169 -3.37049,2.32355 0,0.59186 -1.01115,1.07611 -2.247,1.07611 -1.47603,0 -2.247,0.79521 -2.247,2.31762 0,1.27468 -2.87768,5.70295 -6.39485,9.8406 l -6.39484,7.52299 6.67571,-6.70168 6.67572,-6.70167 8.988,2.60065 c 14.78234,4.27725 14.46896,3.91465 13.56834,15.6989 -0.42098,5.50831 -1.2975,11.6356 -1.94783,13.61622 -1.34908,4.10868 0.73445,10.14067 4.93934,14.29976 3.22537,3.19023 0.0221,3.30373 -3.77389,0.13376 -1.47636,-1.23295 -3.69323,-2.47254 -4.92637,-2.75465 -1.31293,-0.30036 -2.04053,-1.22503 -1.75574,-2.23128 1.03041,-3.64057 0.61144,-26.16821 -0.48635,-26.15143 -1.91038,0.0293 -3.48121,1.5868 -6.59676,6.54106 -1.65023,2.62416 -4.88565,7.29109 -7.18982,10.37099 -2.30417,3.07986 -5.02065,7.37394 -6.03661,9.54239 -3.91422,8.35441 -6.57904,15.32816 -6.57904,17.21714 0,1.08289 -0.7073,2.56483 -1.571802,3.29319 -0.864487,0.72837 -1.923469,2.57806 -2.353287,4.11041 -0.781198,2.78506 -0.778405,2.78582 7.470169,2.05866 20.64501,-1.82003 28.14132,-2.02735 27.40229,-0.75783 -0.41002,0.70436 -2.99075,1.28066 -5.73494,1.28066 -2.74839,0 -4.98945,0.56482 -4.98945,1.25748 0,0.81721 -4.28865,1.18502 -12.2489,1.0505 -6.73689,-0.11374 -12.807371,0.15946 -13.489967,0.60735 -0.682595,0.44789 -1.95578,2.28167 -2.829299,4.07507 l -1.588219,3.26072 9.741575,0.0507 c 10.02288,0.0523 25.02211,2.40732 26.05058,4.09035 0.31901,0.52203 6.49476,1.07464 13.72391,1.22802 l 13.14388,0.27885 5.98489,-4.21885 c 20.34262,-14.33987 35.29951,-39.71185 38.90675,-65.99905 0.6647,-4.84381 1.0194,7.24327 1.11273,37.91783 l 0.137,45.02824 -42.41208,-0.14544 c -28.83191,-0.0989 -40.25365,-0.47593 -35.6711,-1.17754 10.79034,-1.65206 28.88812,-8.14161 22.87104,-8.20114 -1.01528,-0.01 -5.78922,0.84752 -10.60878,1.90571 -6.7217,1.47582 -12.31079,1.76381 -23.99454,1.23638 -17.899429,-0.80802 -16.942373,-0.67455 -14.10819,-1.96757 1.740256,-0.79393 1.170172,-1.04402 -2.527873,-1.10895 -4.846789,-0.085 -6.311651,-1.58811 -2.901753,-2.97732 1.464494,-0.59665 1.576834,-1.07768 0.514967,-2.20505 -1.570049,-1.6669 -3.464781,0.61258 -3.494379,4.20393 -0.0095,1.14806 -0.522779,2.08739 -1.140703,2.08739 -0.617925,0 -1.123498,1.0633 -1.123498,2.36289 0,2.55743 1.67022,3.24974 11.522984,4.77632 3.415105,0.52913 -11.934902,0.97532 -36.520834,1.06158 l -42.412083,0.14881 z m 79.911728,-38.46782 c 1.397485,-1.89185 1.357751,-1.93404 -0.424182,-0.45035 -1.081368,0.90038 -1.966124,1.83971 -1.966124,2.0874 0,0.98172 0.922602,0.34986 2.390306,-1.63705 z m 13.682113,35.97585 c -0.93522,-2.13957 -1.00644,-4.00626 -0.23502,-6.16039 0.60874,-1.69986 0.8723,-3.73944 0.58568,-4.5324 -0.48126,-1.33151 4.3272,-10.07486 5.54073,-10.07486 0.29497,0 -0.22883,1.94422 -1.16401,4.32048 -2.17098,5.51639 -2.1658,11.54153 0.0137,16.01637 1.65588,3.39963 1.62726,3.51884 -0.84262,3.50985 -1.645,-0.005 -3.03521,-1.10398 -3.89853,-3.07905 z M 73.254224,146.30319 c 1.640813,-3.41465 1.88688,-4.79504 0.865458,-4.85505 -0.784964,-0.046 -0.416058,-0.54513 0.81979,-1.10895 5.015919,-2.28837 -23.462713,-1.25172 -33.761879,1.22897 -5.530018,1.33198 -11.824087,2.66556 -13.986823,2.96352 l -3.932246,0.54176 3.932246,-1.28663 c 8.105172,-2.65199 8.730662,-3.2802 3.370496,-3.38515 -3.696758,-0.0723 -4.602749,-0.40981 -3.370496,-1.25528 2.158665,-1.48109 9.806799,-1.54139 10.29874,-0.0812 0.221621,0.65782 1.979713,0.70767 4.306745,0.12204 3.813011,-0.95949 3.832883,-0.9932 0.655374,-1.11159 -1.802279,-0.0672 -2.923658,-0.4971 -2.49195,-0.95543 1.168197,-1.24026 23.162799,-1.35926 23.878851,-0.12913 0.338854,0.5821 3.480763,0.73812 6.98202,0.34671 4.359046,-0.48728 7.959758,-0.13185 11.421665,1.12748 l 5.055745,1.83912 -4.8014,-0.46926 c -4.784884,-0.46765 -4.810005,-0.44922 -7.302744,5.36075 -1.375737,3.20653 -2.890797,5.84095 -3.3668,5.85428 -0.476001,0.0136 0.166242,-2.12278 1.427208,-4.74694 z M 18.339781,86.364981 18.202779,41.336776 60.614862,41.482227 c 28.892376,0.09909 40.277188,0.475669 35.714813,1.181357 -19.525426,3.0201 -36.88357,12.331089 -51.073043,27.395817 C 31.06716,85.124132 22.297134,103.55298 19.4525,124.2828 18.787812,129.12661 18.43311,117.03954 18.339781,86.364981 Z M 199.08611,126.81278 c 0,-10.55021 -7.45638,-31.558909 -15.73467,-44.333162 -4.25831,-6.571018 -15.70505,-18.723836 -21.89431,-23.24482 -11.61605,-8.485032 -25.8641,-14.481503 -39.37443,-16.571214 -4.56238,-0.705688 6.82245,-1.082269 35.71482,-1.181357 l 42.41208,-0.145451 v 44.729997 c 0,24.601507 -0.25279,44.730007 -0.56175,44.730007 -0.30896,0 -0.56174,-1.79279 -0.56174,-3.984 z"
       id="path52997" />
  </g>
</svg>
